<svg xmlns="http://www.w3.org/2000/svg" width="422.777" height="136.812" viewBox="0 0 422.777 136.812">
  <defs>
    <style>
      .cls-1 {
        fill-rule: evenodd;
      }
    </style>
  </defs>
  <path id="Teste" class="cls-1" d="M826.8,912h17.6V792h41.2V777.2H785.8V792h41V912Zm136.8-45.2a66.381,66.381,0,0,0,.6-8.2c0-17.8-8.4-45.6-40-45.6-28.2,0-45.4,23-45.4,52.2S896.6,914,926.4,914c15.4,0,26-3.2,32.2-6l-3-12.6c-6.6,2.8-14.2,5-26.8,5-17.6,0-32.8-9.8-33.2-33.6h68Zm-67.8-12.6c1.4-12.2,9.2-28.6,27-28.6,19.8,0,24.6,17.4,24.4,28.6H895.8Zm83.4,53.2c6.8,4,16.6,6.6,27.2,6.6,23,0,36.2-12,36.2-29,0-14.4-8.6-22.8-25.4-29.2-12.6-4.8-18.4-8.4-18.4-16.4,0-7.2,5.8-13.2,16.2-13.2a37.673,37.673,0,0,1,19.8,5.6l4.4-12.8c-5.4-3.2-14-6-23.8-6-20.8,0-33.4,12.8-33.4,28.4,0,11.6,8.2,21.2,25.6,27.4,13,4.8,18,9.4,18,17.8,0,8-6,14.4-18.8,14.4a46.127,46.127,0,0,1-23.2-7Zm90-115.4v23.2h-15v13.4h15v52.8c0,11.4,1.8,20,6.8,25.2,4.2,4.8,10.8,7.4,19,7.4,6.8,0,12.2-1,15.6-2.4l-0.8-13.2a39.152,39.152,0,0,1-10.2,1.2c-9.8,0-13.2-6.8-13.2-18.8V828.6h25.2V815.2h-25.2V787.4Zm138.79,74.8a66.381,66.381,0,0,0,.6-8.2c0-17.8-8.4-45.6-39.99-45.6-28.2,0-45.4,23-45.4,52.2S1141,914,1170.8,914c15.39,0,25.99-3.2,32.19-6l-3-12.6c-6.6,2.8-14.2,5-26.79,5-17.6,0-32.8-9.8-33.2-33.6h67.99Zm-67.79-12.6c1.4-12.2,9.2-28.6,27-28.6,19.79,0,24.59,17.4,24.39,28.6H1140.2Z" transform="translate(-785.813 -777.188)"/>
</svg>
